<?xml version="1.0" encoding="utf-8"?>
<!-- Generator: Adobe Illustrator 18.1.1, SVG Export Plug-In . SVG Version: 6.00 Build 0)  -->
<svg version="1.1" id="圖層_1" xmlns="http://www.w3.org/2000/svg" xmlns:xlink="http://www.w3.org/1999/xlink" x="0px" y="0px"
	 viewBox="0 0 84 4" style="enable-background:new 0 0 84 4;" xml:space="preserve">
<circle style="fill:#C6C6C6;" cx="1.4" cy="2" r="0.4"/>
<circle style="fill:#C6C6C6;" cx="3.7" cy="2" r="0.4"/>
<circle style="fill:#C6C6C6;" cx="6" cy="2" r="0.4"/>
<circle style="fill:#C6C6C6;" cx="8.3" cy="2" r="0.4"/>
<circle style="fill:#C6C6C6;" cx="10.6" cy="2" r="0.4"/>
<circle style="fill:#C6C6C6;" cx="12.9" cy="2" r="0.4"/>
<circle style="fill:#C6C6C6;" cx="15.2" cy="2" r="0.4"/>
<circle style="fill:#C6C6C6;" cx="17.6" cy="2" r="0.4"/>
<circle style="fill:#C6C6C6;" cx="19.9" cy="2" r="0.4"/>
<circle style="fill:#C6C6C6;" cx="22.2" cy="2" r="0.4"/>
<circle style="fill:#C6C6C6;" cx="24.5" cy="2" r="0.4"/>
<circle style="fill:#C6C6C6;" cx="26.8" cy="2" r="0.4"/>
<circle style="fill:#C6C6C6;" cx="29.1" cy="2" r="0.4"/>
<circle style="fill:#C6C6C6;" cx="31.4" cy="2" r="0.4"/>
<circle style="fill:#C6C6C6;" cx="33.7" cy="2" r="0.4"/>
<circle style="fill:#C6C6C6;" cx="50.4" cy="2" r="0.4"/>
<circle style="fill:#C6C6C6;" cx="52.7" cy="2" r="0.4"/>
<circle style="fill:#C6C6C6;" cx="55" cy="2" r="0.4"/>
<circle style="fill:#C6C6C6;" cx="57.3" cy="2" r="0.4"/>
<circle style="fill:#C6C6C6;" cx="59.6" cy="2" r="0.4"/>
<circle style="fill:#C6C6C6;" cx="61.9" cy="2" r="0.4"/>
<circle style="fill:#C6C6C6;" cx="64.2" cy="2" r="0.4"/>
<circle style="fill:#C6C6C6;" cx="66.6" cy="2" r="0.4"/>
<circle style="fill:#C6C6C6;" cx="68.9" cy="2" r="0.4"/>
<circle style="fill:#C6C6C6;" cx="71.2" cy="2" r="0.4"/>
<circle style="fill:#C6C6C6;" cx="73.5" cy="2" r="0.4"/>
<circle style="fill:#C6C6C6;" cx="75.8" cy="2" r="0.4"/>
<circle style="fill:#C6C6C6;" cx="78.1" cy="2" r="0.4"/>
<circle style="fill:#C6C6C6;" cx="80.4" cy="2" r="0.4"/>
<circle style="fill:#C6C6C6;" cx="82.7" cy="2" r="0.4"/>
<path style="fill:#7B841A;" d="M43.6,1.3c-0.1-0.1-0.5-0.2-0.6,0l-1,1l-1-1c-0.2-0.2-0.5-0.1-0.6,0s-0.2,0.5,0,0.6l1.3,1.3
	c0.1,0.1,0.2,0.1,0.3,0.1c0.1,0,0.2,0,0.3-0.1L43.6,2C43.8,1.8,43.7,1.5,43.6,1.3z"/>
<g>
</g>
<g>
</g>
<g>
</g>
<g>
</g>
<g>
</g>
<g>
</g>
<g>
</g>
<g>
</g>
<g>
</g>
<g>
</g>
<g>
</g>
<g>
</g>
<g>
</g>
<g>
</g>
<g>
</g>
</svg>
